# xmcd CD database file
#
# Track frame offsets:
#	150
#	12600
#	30900
#	66802
#	102502
#	126981
#	154881
#	194365
#	215138
#	245999
#	276824
#	306298
#
# Disc length: 4218 seconds
#
# Revision: 0
# Processed by: cddbd v1.4PL0 Copyright (c) Steve Scherf et al.
# Submitted via: CDex 1.51
#
DISCID=b810780c
DTITLE=Round About Monk - Rothmans Jazz
DYEAR=1999
DGENRE=Jazz
TTITLE0=The Shadow Of Your Smile
TTITLE1=Funk
TTITLE2=Forgiveness
TTITLE3=Patrice
TTITLE4=Honeysuckle Rose
TTITLE5=Trinkle-Tinkle
TTITLE6=Lullaby
TTITLE7=Dedication To Lionel Hampton
TTITLE8=Atras da Porta
TTITLE9=The Days of Vine and Roses
TTITLE10=N.N. Studio
TTITLE11=All Too Soon
EXTD=YEAR: 1999
EXTT0=
EXTT1=
EXTT2=
EXTT3=
EXTT4=
EXTT5=
EXTT6=
EXTT7=
EXTT8=
EXTT9=
EXTT10=
EXTT11=
PLAYORDER=
